<?xml version="1.0" standalone="no"?>
<!DOCTYPE svg PUBLIC "-//W3C//DTD SVG 20010904//EN"
 "http://www.w3.org/TR/2001/REC-SVG-20010904/DTD/svg10.dtd">
<svg version="1.0" xmlns="http://www.w3.org/2000/svg"
 width="200.000000pt" height="200.000000pt" viewBox="0 0 200.000000 200.000000"
 preserveAspectRatio="xMidYMid meet">

<g transform="translate(0.000000,200.000000) scale(0.100000,-0.100000)"
fill="#000000" stroke="none">
<path d="M798 1683 c7 -3 16 -2 19 1 4 3 -2 6 -13 5 -11 0 -14 -3 -6 -6z"/>
<path d="M850 1635 c0 -8 2 -15 4 -15 2 0 6 7 10 15 3 8 1 15 -4 15 -6 0 -10
-7 -10 -15z"/>
<path d="M1068 1515 c-9 -21 -8 -27 6 -38 27 -20 16 -51 -19 -57 -20 -4 -26
-8 -17 -13 26 -17 12 -30 -28 -24 -22 3 -43 1 -46 -4 -9 -14 -24 -10 -24 6 0
12 -4 13 -18 6 -11 -6 -24 -6 -35 1 -10 5 -28 8 -40 5 -20 -3 -19 -4 8 -12 17
-4 42 -22 56 -39 25 -29 28 -30 45 -15 11 9 38 19 61 23 23 3 47 8 55 11 9 4
19 -14 32 -61 16 -57 18 -74 8 -111 -17 -61 -15 -83 9 -122 11 -19 18 -43 15
-54 -2 -11 2 -26 10 -34 20 -21 17 -36 -6 -30 -11 3 -20 1 -20 -5 0 -6 -11 -8
-25 -6 -14 3 -25 2 -25 -2 0 -4 -21 -8 -46 -8 -75 -2 -64 -12 12 -12 84 0 188
21 242 49 57 29 62 45 7 21 -25 -11 -43 -16 -40 -11 3 5 1 12 -5 16 -5 3 -10
-3 -10 -13 0 -25 -36 -35 -55 -16 -20 20 -30 83 -16 97 15 15 14 28 -2 21 -9
-3 -13 10 -13 51 -1 30 3 52 7 49 5 -3 6 33 3 81 -7 81 -6 86 12 83 14 -2 22
7 32 40 10 30 19 42 33 42 10 0 19 5 19 11 0 12 40 8 73 -6 13 -6 17 -2 17 17
0 13 -5 29 -12 36 -17 17 -69 15 -83 -4 -9 -14 -16 -14 -33 -5 -15 8 -22 8
-22 1 0 -6 -11 -16 -25 -22 -23 -10 -29 -8 -55 20 -17 19 -27 39 -24 47 10 25
-6 16 -18 -10z m120 -106 c-4 -12 -68 -24 -68 -14 0 7 40 24 58 24 8 1 12 -4
10 -10z"/>
<path d="M653 1514 c-26 -28 -9 -74 28 -74 9 0 19 -7 23 -15 7 -20 36 -8 36
16 0 10 -4 19 -10 19 -5 0 -10 13 -10 30 0 22 -4 28 -15 24 -8 -4 -21 -2 -28
4 -8 7 -16 6 -24 -4z"/>
<path d="M1161 1154 c0 -11 3 -14 6 -6 3 7 2 16 -1 19 -3 4 -6 -2 -5 -13z"/>
<path d="M597 1123 c-4 -3 -7 -13 -7 -22 1 -13 3 -13 11 2 11 19 8 33 -4 20z"/>
<path d="M630 1120 c0 -5 7 -7 15 -4 8 4 15 8 15 10 0 2 -7 4 -15 4 -8 0 -15
-4 -15 -10z"/>
<path d="M723 1044 c21 -21 163 -47 277 -49 l125 -3 -100 8 c-115 9 -223 26
-260 40 -29 11 -52 13 -42 4z"/>
<path d="M645 749 c-11 -4 -14 -8 -7 -8 10 -1 12 -23 10 -88 -3 -74 -6 -88
-20 -91 -15 -3 -18 4 -18 47 0 45 -17 81 -38 81 -3 0 -1 -5 6 -12 16 -16 15
-45 0 -51 -10 -4 -10 -6 0 -6 6 -1 12 -12 12 -25 0 -31 22 -48 57 -44 l28 3
-5 101 c-5 96 -6 101 -25 93z"/>
<path d="M1258 704 c4 -44 3 -45 -17 -32 -33 20 -55 0 -59 -54 -2 -28 2 -49
10 -56 10 -8 13 1 13 46 0 45 3 57 17 60 25 5 42 -33 29 -69 -6 -18 -6 -27 -1
-24 6 4 10 -1 10 -9 0 -9 5 -16 10 -16 7 0 10 35 8 100 -2 58 -7 100 -13 100
-6 0 -9 -19 -7 -46z"/>
<path d="M712 659 l-29 -31 20 -39 c10 -21 25 -39 32 -39 10 0 6 13 -11 44
l-24 44 31 26 c17 14 26 26 20 26 -5 0 -23 -14 -39 -31z"/>
<path d="M813 679 c9 -5 17 -21 17 -34 0 -16 6 -25 16 -25 11 0 14 6 8 23 -9
31 -24 47 -43 47 -14 -1 -14 -2 2 -11z"/>
<path d="M1102 678 c-5 -7 -12 -39 -14 -71 l-3 -57 30 0 c23 0 26 3 15 10 -11
6 -14 26 -13 70 0 33 0 60 -2 60 -1 0 -7 -6 -13 -12z"/>
<path d="M1140 686 c0 -2 7 -7 16 -10 8 -3 12 -2 9 4 -6 10 -25 14 -25 6z"/>
<path d="M1370 670 c5 -10 7 -26 4 -34 -4 -11 0 -16 11 -16 13 0 16 6 11 23
-3 12 -6 25 -6 28 0 4 -7 9 -15 13 -13 4 -13 2 -5 -14z"/>
<path d="M1442 678 c-7 -9 -11 -33 -9 -54 2 -22 0 -47 -5 -56 -7 -15 -4 -18
24 -18 19 0 28 4 21 8 -7 4 -13 36 -15 71 -3 54 -5 62 -16 49z"/>
<path d="M423 672 c-35 -22 -34 -102 1 -115 14 -5 15 -3 6 13 -15 28 -12 76 6
94 16 17 8 21 -13 8z"/>
<path d="M767 673 c-24 -42 -13 -94 22 -113 19 -9 19 -8 4 21 -9 19 -13 44
-10 65 5 30 -5 47 -16 27z"/>
<path d="M960 660 c-32 -32 -22 -89 17 -104 14 -6 16 -5 6 5 -16 16 -17 91 -1
107 7 7 9 12 5 12 -4 0 -16 -9 -27 -20z"/>
<path d="M1023 669 c19 -11 24 -86 7 -107 -5 -7 -1 -4 9 5 30 29 34 57 10 86
-11 15 -26 27 -32 27 -7 0 -4 -5 6 -11z"/>
<path d="M1313 669 c-31 -31 -1 -119 39 -119 7 0 5 5 -5 13 -11 8 -17 30 -19
65 -2 43 -5 51 -15 41z"/>
<path d="M1576 667 c3 -10 9 -15 12 -12 3 3 0 11 -7 18 -10 9 -11 8 -5 -6z"/>
<path d="M1511 642 c6 -10 25 -26 41 -35 23 -13 29 -23 25 -38 -5 -17 -3 -18
9 -8 25 21 12 52 -31 76 -50 27 -58 28 -44 5z"/>
<path d="M513 604 c-8 -21 9 -48 32 -53 17 -3 18 -2 2 14 -13 12 -15 21 -7 36
9 15 7 19 -5 19 -9 0 -18 -7 -22 -16z"/>
</g>
</svg>
